<svg width="47" height="47" viewBox="0 0 47 47" fill="none" xmlns="http://www.w3.org/2000/svg">
<path fill-rule="evenodd" clip-rule="evenodd" d="M47 23.5C47 36.4786 36.4786 47 23.5 47C10.5213 47 0 36.4786 0 23.5C0 10.5213 10.5213 0 23.5 0C36.4786 0 47 10.5213 47 23.5ZM32.9712 16.3787C33.6595 17.067 33.6595 18.183 32.9712 18.8712L21.2212 30.6212C20.5329 31.3095 19.4171 31.3095 18.7287 30.6212L14.0287 25.9212C13.3404 25.2329 13.3404 24.1171 14.0287 23.4288C14.717 22.7405 15.833 22.7405 16.5213 23.4288L19.975 26.8824L25.2268 21.6306L30.4788 16.3787C31.1671 15.6904 32.2829 15.6904 32.9712 16.3787Z" fill="#40E891"/>
</svg>
