<svg width="23" height="23" viewBox="0 0 23 23" fill="none" xmlns="http://www.w3.org/2000/svg">
<path d="M21.0833 4.64761V16.0422C21.0833 16.9718 20.3263 17.8247 19.3967 17.9397L19.0996 17.978C17.5279 18.1889 15.3142 18.8405 13.5317 19.588C12.9087 19.8468 12.2188 19.3772 12.2188 18.6968V5.36636C12.2188 5.01177 12.42 4.68594 12.7362 4.51344C14.49 3.56469 17.1446 2.72136 18.9463 2.56802H19.0037C20.1537 2.56802 21.0833 3.49761 21.0833 4.64761Z" fill="white"/>
<path d="M10.262 4.51344C8.50819 3.56469 5.85361 2.72136 4.05194 2.56802H3.98486C2.83486 2.56802 1.90527 3.49761 1.90527 4.64761V16.0422C1.90527 16.9718 2.66236 17.8247 3.59194 17.9397L3.88902 17.978C5.46069 18.1889 7.67444 18.8405 9.45694 19.588C10.0799 19.8468 10.7699 19.3772 10.7699 18.6968V5.36636C10.7699 5.00219 10.5782 4.68594 10.262 4.51344ZM4.78986 7.41719H6.94611C7.33902 7.41719 7.66486 7.74302 7.66486 8.13594C7.66486 8.53844 7.33902 8.85469 6.94611 8.85469H4.78986C4.39694 8.85469 4.07111 8.53844 4.07111 8.13594C4.07111 7.74302 4.39694 7.41719 4.78986 7.41719ZM7.66486 11.7297H4.78986C4.39694 11.7297 4.07111 11.4135 4.07111 11.011C4.07111 10.618 4.39694 10.2922 4.78986 10.2922H7.66486C8.05777 10.2922 8.38361 10.618 8.38361 11.011C8.38361 11.4135 8.05777 11.7297 7.66486 11.7297Z" fill="white"/>
</svg>
