<svg width="242" height="38" viewBox="0 0 242 38" fill="none" xmlns="http://www.w3.org/2000/svg">
<path d="M0.43 29L9.61 8H16.57L25.75 29H18.43L11.65 11.36H14.41L7.63 29H0.43ZM5.89 25.34L7.69 20.24H17.35L19.15 25.34H5.89ZM38.0699 12.29C39.3299 12.29 40.4699 12.55 41.4899 13.07C42.5099 13.57 43.3099 14.36 43.8899 15.44C44.4899 16.52 44.7899 17.92 44.7899 19.64V29H38.0099V20.81C38.0099 19.79 37.8299 19.07 37.4699 18.65C37.1099 18.21 36.6199 17.99 35.9999 17.99C35.5399 17.99 35.1099 18.1 34.7099 18.32C34.3299 18.52 34.0199 18.86 33.7799 19.34C33.5599 19.82 33.4499 20.47 33.4499 21.29V29H26.6699V12.59H33.1199V17.39L31.8299 16.01C32.4699 14.77 33.3299 13.84 34.4099 13.22C35.5099 12.6 36.7299 12.29 38.0699 12.29ZM55.2273 29.3C53.8073 29.3 52.4873 28.96 51.2673 28.28C50.0673 27.58 49.1073 26.6 48.3873 25.34C47.6673 24.06 47.3073 22.54 47.3073 20.78C47.3073 19.02 47.6673 17.51 48.3873 16.25C49.1073 14.97 50.0673 13.99 51.2673 13.31C52.4873 12.63 53.8073 12.29 55.2273 12.29C56.6673 12.29 57.8473 12.6 58.7673 13.22C59.6873 13.82 60.3673 14.75 60.8073 16.01C61.2473 17.25 61.4673 18.84 61.4673 20.78C61.4673 22.74 61.2573 24.35 60.8373 25.61C60.4373 26.87 59.7773 27.8 58.8573 28.4C57.9573 29 56.7473 29.3 55.2273 29.3ZM56.8473 24.02C57.3473 24.02 57.7973 23.9 58.1973 23.66C58.5973 23.42 58.9173 23.06 59.1573 22.58C59.3973 22.08 59.5173 21.48 59.5173 20.78C59.5173 20.06 59.3973 19.47 59.1573 19.01C58.9173 18.53 58.5973 18.17 58.1973 17.93C57.7973 17.69 57.3473 17.57 56.8473 17.57C56.3473 17.57 55.8973 17.69 55.4973 17.93C55.0973 18.17 54.7773 18.53 54.5373 19.01C54.2973 19.47 54.1773 20.06 54.1773 20.78C54.1773 21.48 54.2973 22.08 54.5373 22.58C54.7773 23.06 55.0973 23.42 55.4973 23.66C55.8973 23.9 56.3473 24.02 56.8473 24.02ZM59.7273 29V26.78L59.6973 20.78L59.3973 14.78V6.74H66.1773V29H59.7273ZM78.2397 29.3C76.2397 29.3 74.4897 28.93 72.9897 28.19C71.5097 27.45 70.3597 26.44 69.5397 25.16C68.7197 23.86 68.3097 22.4 68.3097 20.78C68.3097 19.12 68.7097 17.65 69.5097 16.37C70.3297 15.09 71.4397 14.09 72.8397 13.37C74.2597 12.65 75.8497 12.29 77.6097 12.29C79.2297 12.29 80.7197 12.61 82.0797 13.25C83.4597 13.89 84.5597 14.84 85.3797 16.1C86.2197 17.36 86.6397 18.92 86.6397 20.78C86.6397 21.02 86.6297 21.29 86.6097 21.59C86.5897 21.87 86.5697 22.13 86.5497 22.37H73.9197V19.1H82.9497L80.3997 19.97C80.3997 19.33 80.2797 18.79 80.0397 18.35C79.8197 17.89 79.5097 17.54 79.1097 17.3C78.7097 17.04 78.2297 16.91 77.6697 16.91C77.1097 16.91 76.6197 17.04 76.1997 17.3C75.7997 17.54 75.4897 17.89 75.2697 18.35C75.0497 18.79 74.9397 19.33 74.9397 19.97V20.99C74.9397 21.69 75.0797 22.29 75.3597 22.79C75.6397 23.29 76.0397 23.67 76.5597 23.93C77.0797 24.17 77.7097 24.29 78.4497 24.29C79.2097 24.29 79.8297 24.19 80.3097 23.99C80.8097 23.79 81.3297 23.49 81.8697 23.09L85.4097 26.66C84.6097 27.52 83.6197 28.18 82.4397 28.64C81.2797 29.08 79.8797 29.3 78.2397 29.3ZM95.1993 29.3C93.7993 29.3 92.4193 29.15 91.0593 28.85C89.6993 28.55 88.5993 28.16 87.7593 27.68L89.6193 23.21C90.3993 23.67 91.2993 24.03 92.3193 24.29C93.3593 24.55 94.3693 24.68 95.3493 24.68C96.1693 24.68 96.7193 24.61 96.9993 24.47C97.2993 24.33 97.4493 24.14 97.4493 23.9C97.4493 23.66 97.2793 23.49 96.9393 23.39C96.5993 23.27 96.1493 23.18 95.5893 23.12C95.0293 23.06 94.4093 22.99 93.7293 22.91C93.0693 22.81 92.3993 22.67 91.7193 22.49C91.0393 22.31 90.4193 22.04 89.8593 21.68C89.2993 21.32 88.8493 20.84 88.5093 20.24C88.1693 19.62 87.9993 18.84 87.9993 17.9C87.9993 16.86 88.3093 15.92 88.9293 15.08C89.5693 14.24 90.5093 13.57 91.7493 13.07C93.0093 12.55 94.5593 12.29 96.3993 12.29C97.5993 12.29 98.7993 12.4 99.9993 12.62C101.199 12.84 102.229 13.18 103.089 13.64L101.229 18.11C100.389 17.65 99.5593 17.34 98.7393 17.18C97.9393 17 97.1893 16.91 96.4893 16.91C95.6293 16.91 95.0393 16.99 94.7193 17.15C94.4193 17.31 94.2693 17.49 94.2693 17.69C94.2693 17.93 94.4393 18.11 94.7793 18.23C95.1193 18.35 95.5693 18.44 96.1293 18.5C96.6893 18.56 97.2993 18.64 97.9593 18.74C98.6393 18.82 99.3093 18.96 99.9693 19.16C100.649 19.34 101.269 19.61 101.829 19.97C102.389 20.33 102.839 20.82 103.179 21.44C103.519 22.04 103.689 22.81 103.689 23.75C103.689 24.73 103.379 25.65 102.759 26.51C102.139 27.35 101.199 28.03 99.9393 28.55C98.6793 29.05 97.0993 29.3 95.1993 29.3Z" fill="#1744F9"/>
<path d="M134.705 29V10.94C134.705 9.64 135.075 8.6 135.815 7.82C136.575 7.02 137.655 6.62 139.055 6.62C139.635 6.62 140.205 6.71 140.765 6.89C141.325 7.05 141.785 7.3 142.145 7.64L141.545 8.78C141.245 8.48 140.885 8.26 140.465 8.12C140.045 7.98 139.595 7.91 139.115 7.91C138.155 7.91 137.425 8.18 136.925 8.72C136.425 9.24 136.175 10.02 136.175 11.06V13.7L136.205 14.42V29H134.705ZM131.825 14.63V13.34H141.185V14.63H131.825ZM144.245 29V13.34H145.745V29H144.245ZM144.995 9.53C144.655 9.53 144.365 9.41 144.125 9.17C143.885 8.93 143.765 8.65 143.765 8.33C143.765 7.99 143.885 7.7 144.125 7.46C144.365 7.22 144.655 7.1 144.995 7.1C145.355 7.1 145.645 7.22 145.865 7.46C146.105 7.68 146.225 7.96 146.225 8.3C146.225 8.64 146.105 8.93 145.865 9.17C145.645 9.41 145.355 9.53 144.995 9.53ZM159.721 13.22C161.001 13.22 162.111 13.47 163.051 13.97C164.011 14.45 164.751 15.19 165.271 16.19C165.811 17.17 166.081 18.39 166.081 19.85V29H164.581V19.97C164.581 18.21 164.131 16.87 163.231 15.95C162.351 15.03 161.111 14.57 159.511 14.57C158.291 14.57 157.231 14.82 156.331 15.32C155.431 15.82 154.741 16.52 154.261 17.42C153.801 18.32 153.571 19.4 153.571 20.66V29H152.071V13.34H153.511V17.69L153.301 17.21C153.781 15.97 154.571 15 155.671 14.3C156.771 13.58 158.121 13.22 159.721 13.22ZM182.126 29V25.43L182.066 24.89V19.01C182.066 17.55 181.666 16.44 180.866 15.68C180.086 14.92 178.936 14.54 177.416 14.54C176.336 14.54 175.326 14.73 174.386 15.11C173.466 15.47 172.676 15.94 172.016 16.52L171.266 15.44C172.046 14.74 172.986 14.2 174.086 13.82C175.186 13.42 176.336 13.22 177.536 13.22C179.476 13.22 180.966 13.71 182.006 14.69C183.046 15.67 183.566 17.13 183.566 19.07V29H182.126ZM176.486 29.12C175.326 29.12 174.316 28.94 173.456 28.58C172.616 28.2 171.966 27.67 171.506 26.99C171.066 26.31 170.846 25.53 170.846 24.65C170.846 23.85 171.026 23.13 171.386 22.49C171.766 21.83 172.386 21.3 173.246 20.9C174.106 20.48 175.256 20.27 176.696 20.27H182.456V21.44H176.726C175.106 21.44 173.966 21.74 173.306 22.34C172.666 22.94 172.346 23.69 172.346 24.59C172.346 25.59 172.726 26.39 173.486 26.99C174.246 27.59 175.316 27.89 176.696 27.89C178.016 27.89 179.126 27.59 180.026 26.99C180.946 26.39 181.626 25.52 182.066 24.38L182.486 25.4C182.066 26.54 181.346 27.45 180.326 28.13C179.326 28.79 178.046 29.12 176.486 29.12ZM197.396 13.22C198.676 13.22 199.786 13.47 200.726 13.97C201.686 14.45 202.426 15.19 202.946 16.19C203.486 17.17 203.756 18.39 203.756 19.85V29H202.256V19.97C202.256 18.21 201.806 16.87 200.906 15.95C200.026 15.03 198.786 14.57 197.186 14.57C195.966 14.57 194.906 14.82 194.006 15.32C193.106 15.82 192.416 16.52 191.936 17.42C191.476 18.32 191.246 19.4 191.246 20.66V29H189.746V13.34H191.186V17.69L190.976 17.21C191.456 15.97 192.246 15 193.346 14.3C194.446 13.58 195.796 13.22 197.396 13.22ZM216.142 29.12C214.622 29.12 213.262 28.78 212.062 28.1C210.882 27.42 209.942 26.48 209.242 25.28C208.562 24.08 208.222 22.71 208.222 21.17C208.222 19.61 208.562 18.23 209.242 17.03C209.942 15.83 210.882 14.9 212.062 14.24C213.262 13.56 214.622 13.22 216.142 13.22C217.402 13.22 218.542 13.46 219.562 13.94C220.602 14.42 221.442 15.14 222.082 16.1L220.972 16.91C220.412 16.11 219.712 15.52 218.872 15.14C218.032 14.76 217.122 14.57 216.142 14.57C214.922 14.57 213.822 14.85 212.842 15.41C211.882 15.95 211.122 16.72 210.562 17.72C210.022 18.7 209.752 19.85 209.752 21.17C209.752 22.49 210.022 23.65 210.562 24.65C211.122 25.63 211.882 26.4 212.842 26.96C213.822 27.5 214.922 27.77 216.142 27.77C217.122 27.77 218.032 27.58 218.872 27.2C219.712 26.82 220.412 26.23 220.972 25.43L222.082 26.24C221.442 27.2 220.602 27.92 219.562 28.4C218.542 28.88 217.402 29.12 216.142 29.12ZM232.669 29.12C231.089 29.12 229.689 28.78 228.469 28.1C227.269 27.42 226.319 26.48 225.619 25.28C224.939 24.08 224.599 22.71 224.599 21.17C224.599 19.61 224.919 18.24 225.559 17.06C226.219 15.86 227.119 14.92 228.259 14.24C229.399 13.56 230.679 13.22 232.099 13.22C233.519 13.22 234.789 13.55 235.909 14.21C237.049 14.87 237.939 15.8 238.579 17C239.239 18.18 239.569 19.55 239.569 21.11C239.569 21.17 239.559 21.24 239.539 21.32C239.539 21.38 239.539 21.45 239.539 21.53H225.709V20.36H238.729L238.129 20.93C238.149 19.71 237.889 18.62 237.349 17.66C236.829 16.68 236.119 15.92 235.219 15.38C234.319 14.82 233.279 14.54 232.099 14.54C230.939 14.54 229.899 14.82 228.979 15.38C228.079 15.92 227.369 16.68 226.849 17.66C226.329 18.62 226.069 19.72 226.069 20.96V21.23C226.069 22.51 226.349 23.65 226.909 24.65C227.489 25.63 228.279 26.4 229.279 26.96C230.279 27.5 231.419 27.77 232.699 27.77C233.699 27.77 234.629 27.59 235.489 27.23C236.369 26.87 237.109 26.32 237.709 25.58L238.579 26.57C237.899 27.41 237.039 28.05 235.999 28.49C234.979 28.91 233.869 29.12 232.669 29.12Z" fill="#19CD5F"/>
<ellipse cx="114.779" cy="20" rx="6.77866" ry="7" fill="#FEC64B"/>
<ellipse cx="122.779" cy="20" rx="6.77866" ry="7" fill="#FEAD1D"/>
</svg>
