<svg width="17" height="25" viewBox="0 0 17 25" fill="none" xmlns="http://www.w3.org/2000/svg">
<path d="M0.864407 0C1.3418 0 1.72881 0.390453 1.72881 0.872093V3.02326L3.71196 2.6231C5.61426 2.23926 7.58615 2.42191 9.38734 3.1488L9.62212 3.24352C11.4213 3.96964 13.4018 4.10524 15.2818 3.63105C16.1546 3.41092 17 4.0769 17 4.98452V13.5508C17 14.3 16.4946 14.953 15.7742 15.1348L15.5271 15.1971C13.4875 15.7115 11.3393 15.5644 9.38734 14.7767C7.58615 14.0498 5.61426 13.8672 3.71196 14.251L1.72881 14.6512V24.1279C1.72881 24.6095 1.3418 25 0.864407 25C0.387012 25 0 24.6095 0 24.1279V0.872093C0 0.390453 0.387012 0 0.864407 0Z" fill="white"/>
</svg>
