<svg width="21" height="21" viewBox="0 0 21 21" fill="none" xmlns="http://www.w3.org/2000/svg">
<g clip-path="url(#clip0_1824_159)">
<path d="M11.5 0.875001C9.59636 0.875001 7.73546 1.4395 6.15264 2.49711C4.56982 3.55471 3.33616 5.05793 2.60766 6.81667C1.87917 8.57541 1.68856 10.5107 2.05995 12.3777C2.43133 14.2448 3.34802 15.9598 4.6941 17.3059C6.04018 18.652 7.75519 19.5687 9.62226 19.9401C11.4893 20.3114 13.4246 20.1208 15.1833 19.3923C16.9421 18.6638 18.4453 17.4302 19.5029 15.8474C20.5605 14.2645 21.125 12.4036 21.125 10.5C21.1308 9.23441 20.8858 7.98021 20.4041 6.80983C19.9225 5.63946 19.2137 4.5761 18.3188 3.68118C17.4239 2.78626 16.3605 2.07751 15.1902 1.59586C14.0198 1.11421 12.7656 0.869209 11.5 0.875001ZM12.375 15.925C12.3313 15.9688 12.3313 16.0125 12.2875 16.1C12.2438 16.1875 12.2438 16.1875 12.2438 16.2313L12.1125 16.3625L11.9813 16.4938H11.85L11.675 16.5813H11.325L11.15 16.4938H11.0188L10.8875 16.3625L10.7563 16.2313C10.7563 16.1875 10.7125 16.1438 10.7125 16.1C10.7125 16.0563 10.6688 15.9688 10.625 15.925V15.575C10.6688 15.5312 10.6688 15.4875 10.7125 15.4C10.7563 15.3125 10.7563 15.3125 10.7563 15.2688L10.8875 15.1375C10.9843 15.0286 11.1079 14.947 11.2461 14.9009C11.3844 14.8548 11.5322 14.8459 11.675 14.875H11.85L11.9813 14.9625L12.1125 15.0938L12.2438 15.225C12.2438 15.2688 12.2875 15.3125 12.2875 15.3563C12.2875 15.4 12.3313 15.4875 12.375 15.5313V15.8813V15.925ZM13.1625 11.8125C12.855 11.9784 12.6095 12.2393 12.4625 12.5563C12.4075 12.7217 12.3018 12.8656 12.1605 12.9676C12.0192 13.0697 11.8493 13.1247 11.675 13.125H11.325C11.1106 13.0376 10.9396 12.8689 10.8494 12.6557C10.7592 12.4425 10.7572 12.2022 10.8438 11.9875C11.1388 11.2286 11.7201 10.6158 12.4625 10.2813C12.9013 10.1036 13.269 9.78567 13.5081 9.37711C13.7472 8.96855 13.8444 8.49232 13.7845 8.02273C13.7245 7.55314 13.5108 7.1166 13.1767 6.78122C12.8426 6.44584 12.4069 6.23048 11.9375 6.16875C11.6177 6.10865 11.2888 6.11654 10.9722 6.19192C10.6556 6.26729 10.3584 6.40847 10.1 6.60625C9.86227 6.81498 9.66976 7.07016 9.53433 7.35607C9.3989 7.64198 9.32341 7.95257 9.3125 8.26875C9.3125 8.50082 9.22032 8.72337 9.05622 8.88747C8.89213 9.05156 8.66957 9.14375 8.4375 9.14375C8.20544 9.14375 7.98288 9.05156 7.81879 8.88747C7.65469 8.72337 7.5625 8.50082 7.5625 8.26875C7.56769 7.70127 7.69547 7.14162 7.93712 6.62813C8.17876 6.11464 8.52854 5.65945 8.9625 5.29375C9.41313 4.90486 9.94869 4.62707 10.5261 4.48271C11.1036 4.33834 11.7069 4.33142 12.2875 4.4625C13.0428 4.59831 13.7394 4.95924 14.2859 5.49796C14.8324 6.03667 15.2033 6.728 15.35 7.48125C15.5294 8.34421 15.4108 9.24251 15.0134 10.0293C14.6161 10.816 13.9635 11.4447 13.1625 11.8125Z" fill="white"/>
</g>
<defs>
<clipPath id="clip0_1824_159">
<rect width="21" height="21" fill="white"/>
</clipPath>
</defs>
</svg>
