<svg width="18" height="18" viewBox="0 0 18 18" fill="none" xmlns="http://www.w3.org/2000/svg">
<path d="M3 2H15.4156C15.7402 2 16.0025 1.6887 15.902 1.3801C15.6411 0.579 14.8881 0 14 0H2C0.8954 0 0 0.8954 0 2V16C0 17.1046 0.8954 18 2 18H16C17.1046 18 18 17.1046 18 16V6C18 4.8954 17.1046 4 16 4H3C2.4477 4 2 3.5522 2 3C2 2.4478 2.4477 2 3 2ZM13 9.5C13.8284 9.5 14.5 10.1715 14.5 11C14.5 11.8285 13.8284 12.5 13 12.5C12.1716 12.5 11.5 11.8284 11.5 11C11.5 10.1716 12.1716 9.5 13 9.5Z" fill="white"/>
</svg>
