<svg width="12" height="15" viewBox="0 0 12 15" fill="none" xmlns="http://www.w3.org/2000/svg">
<path d="M3.35547 4.02544V5.03181L2.10024 5.18313V4.04035C2.10293 3.62217 2.16652 3.21863 2.28217 2.83898C2.28791 2.79912 2.29746 2.75959 2.311 2.7209C2.70791 1.53821 3.59914 0.635319 4.69954 0.231765C5.10507 0.0817111 5.54116 0 5.99504 0C5.99669 0 5.99835 1.07313e-06 6 3.21885e-06C6.00165 1.07313e-06 6.00331 0 6.00496 0C6.45883 0 6.89492 0.08171 7.30045 0.231762C8.40085 0.635314 9.29209 1.53821 9.689 2.7209C9.70254 2.75959 9.71209 2.79912 9.71783 2.83898C9.83348 3.21863 9.89707 3.62217 9.89976 4.04035V5.18313L8.64453 5.03181V4.02544C8.6431 3.72667 8.59485 3.43881 8.5069 3.16941C8.50393 3.16188 8.50107 3.15426 8.49833 3.14656C8.47756 3.08386 8.45472 3.02235 8.42993 2.96209C8.02516 1.99241 7.091 1.30846 6 1.30456C4.90899 1.30846 3.97481 1.99243 3.57005 2.96213C3.54526 3.02238 3.52244 3.08388 3.50167 3.14656C3.49893 3.15426 3.49608 3.16187 3.4931 3.16941C3.40515 3.43881 3.3569 3.72667 3.35547 4.02544Z" fill="#383838"/>
<path d="M8.98673 5.0333C10.6508 5.0333 12 6.43549 12 8.16494L12 11.8684C12 13.5978 10.6508 15 8.98673 15H3.01327C1.34919 15 0 13.5978 0 11.8684L0 8.16494C0 6.43549 1.34919 5.0333 3.01327 5.0333L8.98673 5.0333ZM5.99641 8.53692C5.65212 8.53692 5.37238 8.82765 5.37238 9.18547V10.8404C5.37238 11.2056 5.65212 11.4964 5.99641 11.4964C6.34788 11.4964 6.62761 11.2056 6.62761 10.8404V9.18547C6.62761 8.82765 6.34788 8.53692 5.99641 8.53692Z" fill="#383838"/>
</svg>
