<svg width="253" height="38" viewBox="0 0 253 38" fill="none" xmlns="http://www.w3.org/2000/svg">
<path d="M1.5 29V6.74H8.28V29H1.5ZM20.3452 29.3C18.3452 29.3 16.5952 28.93 15.0952 28.19C13.6152 27.45 12.4652 26.44 11.6452 25.16C10.8252 23.86 10.4152 22.4 10.4152 20.78C10.4152 19.12 10.8152 17.65 11.6152 16.37C12.4352 15.09 13.5452 14.09 14.9452 13.37C16.3652 12.65 17.9552 12.29 19.7152 12.29C21.3352 12.29 22.8252 12.61 24.1852 13.25C25.5652 13.89 26.6652 14.84 27.4852 16.1C28.3252 17.36 28.7452 18.92 28.7452 20.78C28.7452 21.02 28.7352 21.29 28.7152 21.59C28.6952 21.87 28.6752 22.13 28.6552 22.37H16.0252V19.1H25.0552L22.5052 19.97C22.5052 19.33 22.3852 18.79 22.1452 18.35C21.9252 17.89 21.6152 17.54 21.2152 17.3C20.8152 17.04 20.3352 16.91 19.7752 16.91C19.2152 16.91 18.7252 17.04 18.3052 17.3C17.9052 17.54 17.5952 17.89 17.3752 18.35C17.1552 18.79 17.0452 19.33 17.0452 19.97V20.99C17.0452 21.69 17.1852 22.29 17.4652 22.79C17.7452 23.29 18.1452 23.67 18.6652 23.93C19.1852 24.17 19.8152 24.29 20.5552 24.29C21.3152 24.29 21.9352 24.19 22.4152 23.99C22.9152 23.79 23.4352 23.49 23.9752 23.09L27.5152 26.66C26.7152 27.52 25.7252 28.18 24.5452 28.64C23.3852 29.08 21.9852 29.3 20.3452 29.3ZM42.2848 12.29C43.5448 12.29 44.6848 12.55 45.7048 13.07C46.7248 13.57 47.5248 14.36 48.1048 15.44C48.7048 16.52 49.0048 17.92 49.0048 19.64V29H42.2248V20.81C42.2248 19.79 42.0448 19.07 41.6848 18.65C41.3248 18.21 40.8348 17.99 40.2148 17.99C39.7548 17.99 39.3248 18.1 38.9248 18.32C38.5448 18.52 38.2348 18.86 37.9948 19.34C37.7748 19.82 37.6648 20.47 37.6648 21.29V29H30.8848V12.59H37.3348V17.39L36.0448 16.01C36.6848 14.77 37.5448 13.84 38.6248 13.22C39.7248 12.6 40.9448 12.29 42.2848 12.29ZM59.4422 29.3C58.0222 29.3 56.7022 28.96 55.4822 28.28C54.2822 27.58 53.3222 26.6 52.6022 25.34C51.8822 24.06 51.5222 22.54 51.5222 20.78C51.5222 19.02 51.8822 17.51 52.6022 16.25C53.3222 14.97 54.2822 13.99 55.4822 13.31C56.7022 12.63 58.0222 12.29 59.4422 12.29C60.8822 12.29 62.0622 12.6 62.9822 13.22C63.9022 13.82 64.5822 14.75 65.0222 16.01C65.4622 17.25 65.6822 18.84 65.6822 20.78C65.6822 22.74 65.4722 24.35 65.0522 25.61C64.6522 26.87 63.9922 27.8 63.0722 28.4C62.1722 29 60.9622 29.3 59.4422 29.3ZM61.0622 24.02C61.5622 24.02 62.0122 23.9 62.4122 23.66C62.8122 23.42 63.1322 23.06 63.3722 22.58C63.6122 22.08 63.7322 21.48 63.7322 20.78C63.7322 20.06 63.6122 19.47 63.3722 19.01C63.1322 18.53 62.8122 18.17 62.4122 17.93C62.0122 17.69 61.5622 17.57 61.0622 17.57C60.5622 17.57 60.1122 17.69 59.7122 17.93C59.3122 18.17 58.9922 18.53 58.7522 19.01C58.5122 19.47 58.3922 20.06 58.3922 20.78C58.3922 21.48 58.5122 22.08 58.7522 22.58C58.9922 23.06 59.3122 23.42 59.7122 23.66C60.1122 23.9 60.5622 24.02 61.0622 24.02ZM63.9422 29V26.78L63.9122 20.78L63.6122 14.78V6.74H70.3922V29H63.9422ZM73.3945 29V12.59H80.1745V29H73.3945ZM76.7845 11.27C75.5445 11.27 74.5545 10.94 73.8145 10.28C73.0745 9.62 72.7045 8.8 72.7045 7.82C72.7045 6.84 73.0745 6.02 73.8145 5.36C74.5545 4.7 75.5445 4.37 76.7845 4.37C78.0245 4.37 79.0145 4.68 79.7545 5.3C80.4945 5.92 80.8645 6.72 80.8645 7.7C80.8645 8.74 80.4945 9.6 79.7545 10.28C79.0145 10.94 78.0245 11.27 76.7845 11.27ZM94.5797 12.29C95.8397 12.29 96.9797 12.55 97.9997 13.07C99.0197 13.57 99.8197 14.36 100.4 15.44C101 16.52 101.3 17.92 101.3 19.64V29H94.5197V20.81C94.5197 19.79 94.3397 19.07 93.9797 18.65C93.6197 18.21 93.1297 17.99 92.5097 17.99C92.0497 17.99 91.6197 18.1 91.2197 18.32C90.8397 18.52 90.5297 18.86 90.2897 19.34C90.0697 19.82 89.9597 20.47 89.9597 21.29V29H83.1797V12.59H89.6297V17.39L88.3397 16.01C88.9797 14.77 89.8397 13.84 90.9197 13.22C92.0197 12.6 93.2397 12.29 94.5797 12.29ZM112.877 35.12C111.257 35.12 109.737 34.95 108.317 34.61C106.897 34.27 105.677 33.76 104.657 33.08L106.937 28.46C107.577 28.96 108.387 29.35 109.367 29.63C110.367 29.93 111.307 30.08 112.187 30.08C113.587 30.08 114.587 29.78 115.187 29.18C115.787 28.6 116.087 27.76 116.087 26.66V25.28L116.387 20.18L116.417 15.08V12.59H122.867V25.73C122.867 28.91 121.987 31.27 120.227 32.81C118.467 34.35 116.017 35.12 112.877 35.12ZM111.557 28.1C110.177 28.1 108.887 27.78 107.687 27.14C106.487 26.48 105.517 25.56 104.777 24.38C104.037 23.2 103.667 21.8 103.667 20.18C103.667 18.56 104.037 17.16 104.777 15.98C105.517 14.8 106.487 13.89 107.687 13.25C108.887 12.61 110.177 12.29 111.557 12.29C112.977 12.29 114.137 12.57 115.037 13.13C115.957 13.69 116.637 14.56 117.077 15.74C117.517 16.9 117.737 18.38 117.737 20.18C117.737 21.98 117.517 23.47 117.077 24.65C116.637 25.81 115.957 26.68 115.037 27.26C114.137 27.82 112.977 28.1 111.557 28.1ZM113.357 22.82C113.897 22.82 114.377 22.71 114.797 22.49C115.217 22.27 115.547 21.96 115.787 21.56C116.027 21.16 116.147 20.7 116.147 20.18C116.147 19.64 116.027 19.18 115.787 18.8C115.547 18.4 115.217 18.1 114.797 17.9C114.377 17.68 113.897 17.57 113.357 17.57C112.837 17.57 112.357 17.68 111.917 17.9C111.497 18.1 111.157 18.4 110.897 18.8C110.657 19.18 110.537 19.64 110.537 20.18C110.537 20.7 110.657 21.16 110.897 21.56C111.157 21.96 111.497 22.27 111.917 22.49C112.357 22.71 112.837 22.82 113.357 22.82Z" fill="#1744F9"/>
<path d="M163.978 29.15C162.398 29.15 160.938 28.89 159.598 28.37C158.258 27.83 157.088 27.08 156.088 26.12C155.108 25.16 154.348 24.04 153.808 22.76C153.268 21.46 152.998 20.04 152.998 18.5C152.998 16.96 153.268 15.55 153.808 14.27C154.348 12.97 155.118 11.84 156.118 10.88C157.118 9.92 158.278 9.18 159.598 8.66C160.938 8.12 162.408 7.85 164.008 7.85C165.528 7.85 166.938 8.09 168.238 8.57C169.538 9.05 170.648 9.77 171.568 10.73L170.608 11.75C169.688 10.85 168.678 10.21 167.578 9.83C166.498 9.45 165.318 9.26 164.038 9.26C162.678 9.26 161.418 9.49 160.258 9.95C159.098 10.41 158.088 11.06 157.228 11.9C156.368 12.74 155.698 13.72 155.218 14.84C154.758 15.96 154.528 17.18 154.528 18.5C154.528 19.82 154.758 21.04 155.218 22.16C155.698 23.28 156.368 24.26 157.228 25.1C158.088 25.94 159.098 26.59 160.258 27.05C161.418 27.51 162.678 27.74 164.038 27.74C165.278 27.74 166.448 27.55 167.548 27.17C168.668 26.79 169.688 26.16 170.608 25.28L171.478 26.45C170.538 27.35 169.408 28.03 168.088 28.49C166.788 28.93 165.418 29.15 163.978 29.15ZM170.008 26.3V18.59H171.478V26.45L170.008 26.3ZM187.601 29V25.43L187.541 24.89V19.01C187.541 17.55 187.141 16.44 186.341 15.68C185.561 14.92 184.411 14.54 182.891 14.54C181.811 14.54 180.801 14.73 179.861 15.11C178.941 15.47 178.151 15.94 177.491 16.52L176.741 15.44C177.521 14.74 178.461 14.2 179.561 13.82C180.661 13.42 181.811 13.22 183.011 13.22C184.951 13.22 186.441 13.71 187.481 14.69C188.521 15.67 189.041 17.13 189.041 19.07V29H187.601ZM181.961 29.12C180.801 29.12 179.791 28.94 178.931 28.58C178.091 28.2 177.441 27.67 176.981 26.99C176.541 26.31 176.321 25.53 176.321 24.65C176.321 23.85 176.501 23.13 176.861 22.49C177.241 21.83 177.861 21.3 178.721 20.9C179.581 20.48 180.731 20.27 182.171 20.27H187.931V21.44H182.201C180.581 21.44 179.441 21.74 178.781 22.34C178.141 22.94 177.821 23.69 177.821 24.59C177.821 25.59 178.201 26.39 178.961 26.99C179.721 27.59 180.791 27.89 182.171 27.89C183.491 27.89 184.601 27.59 185.501 26.99C186.421 26.39 187.101 25.52 187.541 24.38L187.961 25.4C187.541 26.54 186.821 27.45 185.801 28.13C184.801 28.79 183.521 29.12 181.961 29.12ZM214.721 13.22C215.981 13.22 217.071 13.47 217.991 13.97C218.931 14.45 219.661 15.19 220.181 16.19C220.701 17.17 220.961 18.39 220.961 19.85V29H219.461V19.97C219.461 18.21 219.031 16.87 218.171 15.95C217.311 15.03 216.111 14.57 214.571 14.57C213.391 14.57 212.371 14.82 211.511 15.32C210.651 15.82 209.991 16.52 209.531 17.42C209.071 18.32 208.841 19.4 208.841 20.66V29H207.341V19.97C207.341 18.21 206.911 16.87 206.051 15.95C205.191 15.03 203.991 14.57 202.451 14.57C201.271 14.57 200.251 14.82 199.391 15.32C198.531 15.82 197.871 16.52 197.411 17.42C196.951 18.32 196.721 19.4 196.721 20.66V29H195.221V13.34H196.661V17.66L196.451 17.18C196.911 15.96 197.681 15 198.761 14.3C199.841 13.58 201.141 13.22 202.661 13.22C204.221 13.22 205.531 13.62 206.591 14.42C207.671 15.2 208.351 16.37 208.631 17.93L208.121 17.72C208.541 16.38 209.331 15.3 210.491 14.48C211.651 13.64 213.061 13.22 214.721 13.22ZM233.515 29.12C231.935 29.12 230.535 28.78 229.315 28.1C228.115 27.42 227.165 26.48 226.465 25.28C225.785 24.08 225.445 22.71 225.445 21.17C225.445 19.61 225.765 18.24 226.405 17.06C227.065 15.86 227.965 14.92 229.105 14.24C230.245 13.56 231.525 13.22 232.945 13.22C234.365 13.22 235.635 13.55 236.755 14.21C237.895 14.87 238.785 15.8 239.425 17C240.085 18.18 240.415 19.55 240.415 21.11C240.415 21.17 240.405 21.24 240.385 21.32C240.385 21.38 240.385 21.45 240.385 21.53H226.555V20.36H239.575L238.975 20.93C238.995 19.71 238.735 18.62 238.195 17.66C237.675 16.68 236.965 15.92 236.065 15.38C235.165 14.82 234.125 14.54 232.945 14.54C231.785 14.54 230.745 14.82 229.825 15.38C228.925 15.92 228.215 16.68 227.695 17.66C227.175 18.62 226.915 19.72 226.915 20.96V21.23C226.915 22.51 227.195 23.65 227.755 24.65C228.335 25.63 229.125 26.4 230.125 26.96C231.125 27.5 232.265 27.77 233.545 27.77C234.545 27.77 235.475 27.59 236.335 27.23C237.215 26.87 237.955 26.32 238.555 25.58L239.425 26.57C238.745 27.41 237.885 28.05 236.845 28.49C235.825 28.91 234.715 29.12 233.515 29.12Z" fill="#19CD5F"/>
<circle cx="134" cy="22" r="7" fill="#FEC64B"/>
<circle cx="144" cy="22" r="7" fill="#FEAD1D"/>
</svg>
