<svg width="32" height="32" viewBox="0 0 32 32" fill="none" xmlns="http://www.w3.org/2000/svg">
<path d="M29.3334 12.5C29.3334 11.0272 28.1395 9.83333 26.6667 9.83333H23.6667V7.16667C23.6667 5.14453 22.0222 3.5 20.0001 3.5H12.0001C9.97795 3.5 8.33341 5.14453 8.33341 7.16667V9.83333H5.33341C3.86061 9.83333 2.66675 11.0272 2.66675 12.5V16.5H29.3334V12.5ZM21.6667 9.83333H10.3334V7.16667C10.3334 6.24733 11.0807 5.5 12.0001 5.5H20.0001C20.9194 5.5 21.6667 6.24733 21.6667 7.16667V9.83333ZM2.66675 25.8333V18.5H12.0001V20.5C12.0001 21.2363 12.597 21.8333 13.3334 21.8333H18.6667C19.4031 21.8333 20.0001 21.2363 20.0001 20.5V18.5H29.3334V25.8333C29.3334 27.3061 28.1395 28.5 26.6667 28.5H5.33341C3.86061 28.5 2.66675 27.3061 2.66675 25.8333Z" fill="#3268FF"/>
</svg>
