<svg width="65" height="64" viewBox="0 0 65 64" fill="none" xmlns="http://www.w3.org/2000/svg">
<rect x="0.666748" width="64" height="64" rx="12" fill="#3268FF"/>
<path d="M42.6667 40C42.6667 41.1046 41.7713 42 40.6667 42C39.5621 42 38.6667 41.1046 38.6667 40C38.6667 38.8954 39.5621 38 40.6667 38C41.7713 38 42.6667 38.8954 42.6667 40ZM24.6667 39C25.7713 39 26.6667 38.1046 26.6667 37C26.6667 35.8954 25.7713 35 24.6667 35C23.5621 35 22.6667 35.8954 22.6667 37C22.6667 38.1046 23.5621 39 24.6667 39ZM40.6667 22C39.5621 22 38.6667 22.8954 38.6667 24C38.6667 25.1046 39.5621 26 40.6667 26C41.7713 26 42.6667 25.1046 42.6667 24C42.6667 22.8954 41.7713 22 40.6667 22ZM26.1812 22.0428C24.1231 21.701 22.3677 23.4564 22.7096 25.5144C22.9038 26.6837 23.8324 27.6482 24.9862 27.9197C25.8032 28.112 26.5585 27.9432 27.1819 27.5756L28.3709 28.7646C28.8975 29.2912 29.0872 30.0657 28.8586 30.7744C28.7341 31.1605 28.6667 31.5723 28.6667 31.9999C28.6667 32.1207 28.6726 32.2401 28.6839 32.3578C28.7542 33.0918 28.3804 33.7948 27.7551 34.1856L27.1641 34.555C27.5149 34.9133 27.7791 35.35 27.9511 35.8314L28.5551 35.4539C29.1926 35.0555 29.9952 35.055 30.6405 35.4405C31.2335 35.7948 31.9247 35.9999 32.6667 35.9999C33.0943 35.9999 33.506 35.9325 33.892 35.808C34.6008 35.5794 35.3753 35.7691 35.9019 36.2957L37.7249 38.1187C37.9983 37.6926 38.3594 37.3316 38.7854 37.0582L36.9624 35.2352C36.4358 34.7086 36.2461 33.9341 36.4747 33.2254C36.5992 32.8393 36.6666 32.4275 36.6666 31.9999C36.6666 31.5723 36.5992 31.1605 36.4747 30.7744C36.2462 30.0656 36.4358 29.2911 36.9624 28.7646L38.7854 26.9416C38.3593 26.6682 37.9983 26.3071 37.7249 25.8811L35.9019 27.7041C35.3753 28.2307 34.6008 28.4204 33.8921 28.1918C33.506 28.0673 33.0942 27.9999 32.6666 27.9999C32.239 27.9999 31.8272 28.0673 31.4411 28.1918C30.7323 28.4203 29.9578 28.2307 29.4313 27.7041L28.2423 26.5151C28.6099 25.8917 28.7787 25.1364 28.5864 24.3194C28.3148 23.1656 27.3504 22.237 26.1812 22.0428Z" fill="white"/>
</svg>
