<svg width="64" height="64" viewBox="0 0 64 64" fill="none" xmlns="http://www.w3.org/2000/svg">
<rect width="64" height="64" rx="12" fill="#3268FF"/>
<path d="M32.75 22.375V28.5645L35.4697 25.8448C35.7627 25.5518 36.2373 25.5518 36.5302 25.8448C36.8231 26.1378 36.8232 26.6124 36.5302 26.9053L32.5302 30.9053C32.3837 31.0518 32.1923 31.125 31.9999 31.125C31.8075 31.125 31.6161 31.0518 31.4696 30.9053L27.4697 26.9053C27.1767 26.6123 27.1767 26.1377 27.4697 25.8448C27.7627 25.5519 28.2373 25.5518 28.5302 25.8448L31.2499 28.5645V22.375C31.2499 21.9609 31.5858 21.625 31.9999 21.625C32.414 21.625 32.75 21.9609 32.75 22.375ZM42 30.375V40.375C42 41.4796 41.1046 42.375 40 42.375H24C22.8954 42.375 22 41.4796 22 40.375V30.375C22 29.2704 22.8954 28.375 24 28.375H25.6364C26.1669 28.375 26.6755 28.5857 27.0506 28.9608L30.2324 32.1426C31.2086 33.1188 32.7914 33.1188 33.7676 32.1426L36.9494 28.9608C37.3245 28.5857 37.8332 28.375 38.3636 28.375H40C41.1046 28.375 42 29.2704 42 30.375ZM27.75 35.375C27.75 34.9609 27.4141 34.625 27 34.625H25C24.5859 34.625 24.25 34.9609 24.25 35.375C24.25 35.7891 24.5859 36.125 25 36.125H27C27.4141 36.125 27.75 35.7891 27.75 35.375ZM34 35.375C34 34.2704 33.1046 33.375 32 33.375C30.8954 33.375 30 34.2704 30 35.375C30 36.4796 30.8954 37.375 32 37.375C33.1046 37.375 34 36.4796 34 35.375ZM39.75 35.375C39.75 34.9609 39.4141 34.625 39 34.625H37C36.5859 34.625 36.25 34.9609 36.25 35.375C36.25 35.7891 36.5859 36.125 37 36.125H39C39.4141 36.125 39.75 35.7891 39.75 35.375Z" fill="white"/>
</svg>
