<svg width="65" height="64" viewBox="0 0 65 64" fill="none" xmlns="http://www.w3.org/2000/svg">
<rect x="0.333252" width="64" height="64" rx="12" fill="#3268FF"/>
<path d="M40.3333 22H24.3333C23.2287 22 22.3333 22.8954 22.3333 24V32C22.3333 33.1046 23.2287 34 24.3333 34H40.3333C41.4379 34 42.3333 33.1046 42.3333 32V24C42.3333 22.8954 41.4379 22 40.3333 22ZM27.3333 28.75H25.3333C24.9192 28.75 24.5833 28.4141 24.5833 28C24.5833 27.5859 24.9192 27.25 25.3333 27.25H27.3333C27.7474 27.25 28.0833 27.5859 28.0833 28C28.0833 28.4141 27.7474 28.75 27.3333 28.75ZM32.3333 30C31.2287 30 30.3333 29.1046 30.3333 28C30.3333 26.8954 31.2287 26 32.3333 26C33.4379 26 34.3333 26.8954 34.3333 28C34.3333 29.1046 33.4379 30 32.3333 30ZM39.3333 28.75H37.3333C36.9192 28.75 36.5833 28.4141 36.5833 28C36.5833 27.5859 36.9192 27.25 37.3333 27.25H39.3333C39.7474 27.25 40.0833 27.5859 40.0833 28C40.0833 28.4141 39.7474 28.75 39.3333 28.75ZM40.3333 35.5C41.0777 35.5 41.7654 35.2624 42.3333 34.8646V36C42.3333 37.1046 41.4379 38 40.3333 38H24.3333C23.2287 38 22.3333 37.1046 22.3333 36V34.8646C22.9012 35.2624 23.5889 35.5 24.3333 35.5H40.3333ZM40.3333 39.5C41.0777 39.5 41.7654 39.2624 42.3333 38.8646V40C42.3333 41.1046 41.4379 42 40.3333 42H24.3333C23.2287 42 22.3333 41.1046 22.3333 40V38.8646C22.9012 39.2624 23.5889 39.5 24.3333 39.5H40.3333Z" fill="white"/>
</svg>
