<svg width="64" height="64" viewBox="0 0 64 64" fill="none" xmlns="http://www.w3.org/2000/svg">
<rect width="64" height="64" rx="12" fill="#3268FF"/>
<path d="M26 25H38.4156C38.7402 25 39.0025 24.6887 38.902 24.3801C38.6411 23.579 37.8881 23 37 23H25C23.8954 23 23 23.8954 23 25V39C23 40.1046 23.8954 41 25 41H39C40.1046 41 41 40.1046 41 39V29C41 27.8954 40.1046 27 39 27H26C25.4477 27 25 26.5522 25 26C25 25.4478 25.4477 25 26 25ZM36 32.5C36.8284 32.5 37.5 33.1715 37.5 34C37.5 34.8285 36.8284 35.5 36 35.5C35.1716 35.5 34.5 34.8284 34.5 34C34.5 33.1716 35.1716 32.5 36 32.5Z" fill="white"/>
</svg>
